<svg xmlns="http://www.w3.org/2000/svg" width="101" height="30" fill="none"><path fill="url(#a)" d="M3.186 23H.942L6.75 7.094h2.398L14.978 23h-2.266l-1.43-3.96H4.594L3.186 23Zm4.488-12.474-2.42 6.644h5.39l-2.442-6.644a6.154 6.154 0 0 0-.154-.484 2.386 2.386 0 0 1-.11-.44l-.11.44a6.154 6.154 0 0 1-.154.484Zm16.18 1.716H25.9V23h-1.848l-.22-1.628c-.308.557-.792 1.012-1.452 1.364a4.555 4.555 0 0 1-2.178.528c-1.247 0-2.215-.389-2.904-1.166-.675-.792-1.012-1.848-1.012-3.168v-6.688h2.068v6.006c0 1.144.227 1.965.682 2.464.47.484 1.1.726 1.892.726.953 0 1.68-.293 2.178-.88.498-.601.748-1.481.748-2.64v-5.676Zm3.902 0h6.292v1.738h-6.292v-1.738ZM31.936 23h-2.068V8.876h2.068V23Zm3.157-5.39c0-1.1.242-2.075.726-2.926a5.296 5.296 0 0 1 1.98-2.002c.85-.484 1.818-.726 2.904-.726 1.085 0 2.046.242 2.882.726a5.296 5.296 0 0 1 1.98 2.002c.484.85.726 1.826.726 2.926s-.242 2.075-.726 2.926a5.296 5.296 0 0 1-1.98 2.002c-.836.484-1.797.726-2.882.726-1.086 0-2.054-.242-2.904-.726a5.296 5.296 0 0 1-1.98-2.002c-.484-.85-.726-1.826-.726-2.926Zm2.09 0c0 .748.146 1.408.44 1.98a3.46 3.46 0 0 0 1.254 1.342c.528.323 1.136.484 1.826.484.69 0 1.298-.161 1.826-.484a3.31 3.31 0 0 0 1.232-1.342c.308-.572.462-1.232.462-1.98 0-.763-.154-1.423-.462-1.98a3.304 3.304 0 0 0-1.232-1.342c-.528-.323-1.137-.484-1.826-.484-.69 0-1.298.161-1.826.484a3.46 3.46 0 0 0-1.254 1.342c-.294.557-.44 1.217-.44 1.98ZM50.648 23H48.58V12.242h1.848l.286 1.98-.264-.176c.22-.601.623-1.1 1.21-1.496.601-.41 1.327-.616 2.178-.616.953 0 1.745.257 2.376.77.63.513 1.041 1.195 1.232 2.046h-.374c.147-.85.55-1.533 1.21-2.046.66-.513 1.474-.77 2.442-.77 1.232 0 2.2.36 2.904 1.078.704.719 1.056 1.701 1.056 2.948V23H62.66v-6.534c0-.85-.22-1.503-.66-1.958-.425-.47-1.005-.704-1.738-.704-.513 0-.968.117-1.364.352a2.31 2.31 0 0 0-.902.968c-.22.425-.33.924-.33 1.496V23H55.62v-6.556c0-.85-.213-1.496-.638-1.936-.425-.455-1.005-.682-1.738-.682-.513 0-.968.117-1.364.352a2.31 2.31 0 0 0-.902.968c-.22.41-.33.902-.33 1.474V23Zm20.049.264c-1.144 0-2.046-.3-2.706-.902-.646-.601-.968-1.386-.968-2.354 0-.983.352-1.767 1.056-2.354.704-.601 1.686-.953 2.948-1.056l3.388-.264v-.308c0-.601-.11-1.078-.33-1.43a1.774 1.774 0 0 0-.902-.77 3.304 3.304 0 0 0-1.298-.242c-.866 0-1.54.183-2.024.55-.47.352-.704.858-.704 1.518h-1.804c0-.748.19-1.4.572-1.958.381-.557.916-.99 1.606-1.298.704-.308 1.518-.462 2.442-.462.894 0 1.672.161 2.332.484a3.358 3.358 0 0 1 1.562 1.43c.381.63.572 1.43.572 2.398V23h-1.76l-.22-1.738c-.279.616-.763 1.107-1.452 1.474-.675.352-1.445.528-2.31.528Zm.594-1.606c.982 0 1.752-.293 2.31-.88.557-.601.836-1.408.836-2.42v-.572l-2.75.22c-.91.088-1.57.3-1.98.638-.396.337-.594.77-.594 1.298 0 .572.19 1.005.572 1.298.396.279.931.418 1.606.418Zm6.696-9.416h6.292v1.738h-6.292v-1.738ZM82.167 23h-2.068V8.876h2.068V23Zm3.968 0V12.242h2.068V23h-2.068Zm1.012-13.31c-.367 0-.69-.132-.968-.396a1.365 1.365 0 0 1-.396-.968c0-.381.132-.704.396-.968.278-.264.601-.396.968-.396.381 0 .704.132.968.396s.396.587.396.968c0 .367-.132.69-.396.968a1.317 1.317 0 0 1-.968.396ZM92.305 23h-2.376l3.762-5.324-3.74-5.434h2.398l2.728 4.004 2.662-4.004h2.354l-3.74 5.434L100.027 23h-2.398l-2.684-3.938L92.305 23Z"/><path fill="#fff" d="M87.003 11.447c-.165-.946-.835-2.134-2.111-3.09-.627-.474-1.265-.782-1.892-.914v-.462c1.243-.297 2.464-1.132 3.245-2.265.395-.572.648-1.133.758-1.716h.462c.187 1.11 1.045 2.343 2.211 3.168.572.406 1.166.681 1.77.813v.462c-1.22.253-2.639 1.342-3.343 2.453-.352.56-.56 1.078-.638 1.55h-.462Z"/><defs><linearGradient id="a" x1="100.5" x2=".5" y1="15" y2="15" gradientUnits="userSpaceOnUse"><stop stop-color="#FFB168"/><stop offset="1" stop-color="#E36D00"/></linearGradient></defs></svg>