<svg xmlns="http://www.w3.org/2000/svg" xmlns:xlink="http://www.w3.org/1999/xlink" viewBox="0 0 48 48" width="48" height="48" preserveAspectRatio="xMidYMid meet" style="width: 100%; height: 100%; transform: translate3d(0px, 0px, 0px); content-visibility: visible;"><defs><clipPath id="__lottie_element_21"><rect width="48" height="48" x="0" y="0"></rect></clipPath></defs><g clip-path="url(#__lottie_element_21)"><g transform="matrix(1,0,0,1,0,0)" opacity="1" style="display: block;"><g opacity="1" transform="matrix(1,0,0,1,34.43299865722656,24.684906005859375)"><path fill="rgb(255,255,255)" fill-opacity="0" d=" M6.664000034332275,1.430999994277954 C6.664000034332275,1.430999994277954 6.664000034332275,1.430999994277954 6.664000034332275,1.430999994277954 C6.664000034332275,2.546999931335449 5.665999889373779,3.4519999027252197 4.434999942779541,3.4519999027252197 C4.434999942779541,3.4519999027252197 -4.434999942779541,3.4519999027252197 -4.434999942779541,3.4519999027252197 C-5.665999889373779,3.4519999027252197 -6.664000034332275,2.546999931335449 -6.664000034332275,1.430999994277954 C-6.664000034332275,-1.2660000324249268 -4.251999855041504,-3.4519999027252197 -1.2769999504089355,-3.4519999027252197 C-1.2769999504089355,-3.4519999027252197 1.2769999504089355,-3.4519999027252197 1.2769999504089355,-3.4519999027252197 C4.251999855041504,-3.4519999027252197 6.664000034332275,-1.2660000324249268 6.664000034332275,1.430999994277954z"></path><path stroke-linecap="round" stroke-linejoin="round" fill-opacity="0" stroke="rgb(255,255,255)" stroke-opacity="1" stroke-width="2.5" d=" M6.664000034332275,1.430999994277954 C6.664000034332275,1.430999994277954 6.664000034332275,1.430999994277954 6.664000034332275,1.430999994277954 C6.664000034332275,2.546999931335449 5.665999889373779,3.4519999027252197 4.434999942779541,3.4519999027252197 C4.434999942779541,3.4519999027252197 -4.434999942779541,3.4519999027252197 -4.434999942779541,3.4519999027252197 C-5.665999889373779,3.4519999027252197 -6.664000034332275,2.546999931335449 -6.664000034332275,1.430999994277954 C-6.664000034332275,-1.2660000324249268 -4.251999855041504,-3.4519999027252197 -1.2769999504089355,-3.4519999027252197 C-1.2769999504089355,-3.4519999027252197 1.2769999504089355,-3.4519999027252197 1.2769999504089355,-3.4519999027252197 C4.251999855041504,-3.4519999027252197 6.664000034332275,-1.2660000324249268 6.664000034332275,1.430999994277954z"></path></g><g opacity="1" transform="matrix(1,0,0,1,34.43299865722656,15.544906616210938)"><path fill="rgb(255,255,255)" fill-opacity="0" d=" M-3.4019999504089355,0 C-3.4019999504089355,-1.878999948501587 -1.878999948501587,-3.4010000228881836 -0.0010000000474974513,-3.4010000228881836 C1.878000020980835,-3.4010000228881836 3.4019999504089355,-1.878999948501587 3.4019999504089355,0 C3.4019999504089355,1.878999948501587 1.878000020980835,3.4010000228881836 -0.0010000000474974513,3.4010000228881836 C-1.878999948501587,3.4010000228881836 -3.4019999504089355,1.878999948501587 -3.4019999504089355,0z"></path><path stroke-linecap="round" stroke-linejoin="round" fill-opacity="0" stroke="rgb(255,255,255)" stroke-opacity="1" stroke-width="2.5" d=" M-3.4019999504089355,0 C-3.4019999504089355,-1.878999948501587 -1.878999948501587,-3.4010000228881836 -0.0010000000474974513,-3.4010000228881836 C1.878000020980835,-3.4010000228881836 3.4019999504089355,-1.878999948501587 3.4019999504089355,0 C3.4019999504089355,1.878999948501587 1.878000020980835,3.4010000228881836 -0.0010000000474974513,3.4010000228881836 C-1.878999948501587,3.4010000228881836 -3.4019999504089355,1.878999948501587 -3.4019999504089355,0z"></path></g><g opacity="1" transform="matrix(1,0,0,1,13.567000389099121,27.558549880981445)"><path fill="rgb(255,255,255)" fill-opacity="0" d=" M6.664000034332275,1.430999994277954 C6.664000034332275,1.430999994277954 6.664000034332275,1.430999994277954 6.664000034332275,1.430999994277954 C6.664000034332275,2.546999931335449 5.665999889373779,3.4519999027252197 4.434999942779541,3.4519999027252197 C4.434999942779541,3.4519999027252197 -4.434999942779541,3.4519999027252197 -4.434999942779541,3.4519999027252197 C-5.665999889373779,3.4519999027252197 -6.664000034332275,2.546999931335449 -6.664000034332275,1.430999994277954 C-6.664000034332275,-1.2660000324249268 -4.251999855041504,-3.4519999027252197 -1.2769999504089355,-3.4519999027252197 C-1.2769999504089355,-3.4519999027252197 1.2769999504089355,-3.4519999027252197 1.2769999504089355,-3.4519999027252197 C4.251999855041504,-3.4519999027252197 6.664000034332275,-1.2660000324249268 6.664000034332275,1.430999994277954z"></path><path stroke-linecap="round" stroke-linejoin="round" fill-opacity="0" stroke="rgb(255,255,255)" stroke-opacity="1" stroke-width="2.5" d=" M6.664000034332275,1.430999994277954 C6.664000034332275,1.430999994277954 6.664000034332275,1.430999994277954 6.664000034332275,1.430999994277954 C6.664000034332275,2.546999931335449 5.665999889373779,3.4519999027252197 4.434999942779541,3.4519999027252197 C4.434999942779541,3.4519999027252197 -4.434999942779541,3.4519999027252197 -4.434999942779541,3.4519999027252197 C-5.665999889373779,3.4519999027252197 -6.664000034332275,2.546999931335449 -6.664000034332275,1.430999994277954 C-6.664000034332275,-1.2660000324249268 -4.251999855041504,-3.4519999027252197 -1.2769999504089355,-3.4519999027252197 C-1.2769999504089355,-3.4519999027252197 1.2769999504089355,-3.4519999027252197 1.2769999504089355,-3.4519999027252197 C4.251999855041504,-3.4519999027252197 6.664000034332275,-1.2660000324249268 6.664000034332275,1.430999994277954z"></path></g><g opacity="1" transform="matrix(1,0,0,1,13.567000389099121,18.418548583984375)"><path fill="rgb(255,255,255)" fill-opacity="0" d=" M-3.4019999504089355,0 C-3.4019999504089355,-1.878999948501587 -1.878999948501587,-3.4010000228881836 -0.0010000000474974513,-3.4010000228881836 C1.878000020980835,-3.4010000228881836 3.4019999504089355,-1.878999948501587 3.4019999504089355,0 C3.4019999504089355,1.878999948501587 1.878000020980835,3.4010000228881836 -0.0010000000474974513,3.4010000228881836 C-1.878999948501587,3.4010000228881836 -3.4019999504089355,1.878999948501587 -3.4019999504089355,0z"></path><path stroke-linecap="round" stroke-linejoin="round" fill-opacity="0" stroke="rgb(255,255,255)" stroke-opacity="1" stroke-width="2.5" d=" M-3.4019999504089355,0 C-3.4019999504089355,-1.878999948501587 -1.878999948501587,-3.4010000228881836 -0.0010000000474974513,-3.4010000228881836 C1.878000020980835,-3.4010000228881836 3.4019999504089355,-1.878999948501587 3.4019999504089355,0 C3.4019999504089355,1.878999948501587 1.878000020980835,3.4010000228881836 -0.0010000000474974513,3.4010000228881836 C-1.878999948501587,3.4010000228881836 -3.4019999504089355,1.878999948501587 -3.4019999504089355,0z"></path></g></g><g transform="matrix(1,0,0,1,0,-3.4045333862304688)" opacity="1" style="display: block;"><g opacity="1" transform="matrix(1,0,0,1,24.066999435424805,29.100000381469727)"><path fill="rgb(255,255,255)" fill-opacity="0" d=" M7.5,1.6109999418258667 C7.5,1.6109999418258667 7.5,1.6109999418258667 7.5,1.6109999418258667 C7.5,2.867000102996826 6.376999855041504,3.884999990463257 4.991000175476074,3.884999990463257 C4.991000175476074,3.884999990463257 -4.991000175476074,3.884999990463257 -4.991000175476074,3.884999990463257 C-6.376999855041504,3.884999990463257 -7.5,2.867000102996826 -7.5,1.6109999418258667 C-7.5,-1.4240000247955322 -4.785999774932861,-3.884999990463257 -1.437000036239624,-3.884999990463257 C-1.437000036239624,-3.884999990463257 1.437000036239624,-3.884999990463257 1.437000036239624,-3.884999990463257 C4.785999774932861,-3.884999990463257 7.5,-1.4240000247955322 7.5,1.6109999418258667z"></path><path stroke-linecap="round" stroke-linejoin="round" fill-opacity="0" stroke="rgb(255,255,255)" stroke-opacity="1" stroke-width="2.5" d=" M7.5,1.6109999418258667 C7.5,1.6109999418258667 7.5,1.6109999418258667 7.5,1.6109999418258667 C7.5,2.867000102996826 6.376999855041504,3.884999990463257 4.991000175476074,3.884999990463257 C4.991000175476074,3.884999990463257 -4.991000175476074,3.884999990463257 -4.991000175476074,3.884999990463257 C-6.376999855041504,3.884999990463257 -7.5,2.867000102996826 -7.5,1.6109999418258667 C-7.5,-1.4240000247955322 -4.785999774932861,-3.884999990463257 -1.437000036239624,-3.884999990463257 C-1.437000036239624,-3.884999990463257 1.437000036239624,-3.884999990463257 1.437000036239624,-3.884999990463257 C4.785999774932861,-3.884999990463257 7.5,-1.4240000247955322 7.5,1.6109999418258667z"></path></g><g opacity="1" transform="matrix(1,0,0,1,24.066999435424805,18.81399917602539)"><path fill="rgb(255,255,255)" fill-opacity="0" d=" M-3.828000068664551,0 C-3.828000068664551,-2.114000082015991 -2.114000082015991,-3.828000068664551 0,-3.828000068664551 C2.114000082015991,-3.828000068664551 3.828000068664551,-2.114000082015991 3.828000068664551,0 C3.828000068664551,2.114000082015991 2.114000082015991,3.828000068664551 0,3.828000068664551 C-2.114000082015991,3.828000068664551 -3.828000068664551,2.114000082015991 -3.828000068664551,0z"></path><path stroke-linecap="round" stroke-linejoin="round" fill-opacity="0" stroke="rgb(255,255,255)" stroke-opacity="1" stroke-width="2.5" d=" M-3.828000068664551,0 C-3.828000068664551,-2.114000082015991 -2.114000082015991,-3.828000068664551 0,-3.828000068664551 C2.114000082015991,-3.828000068664551 3.828000068664551,-2.114000082015991 3.828000068664551,0 C3.828000068664551,2.114000082015991 2.114000082015991,3.828000068664551 0,3.828000068664551 C-2.114000082015991,3.828000068664551 -3.828000068664551,2.114000082015991 -3.828000068664551,0z"></path></g></g></g></svg>